# xmcd CD database file
#
# Track frame offsets:
#	150
#	12319
#	30582
#	53687
#	68139
#	85853
#	96187
#	116028
#	131111
#	144836
#	156937
#	186730
#	201793
#	210192
#	220838
#	234763
#	251642
#	264922
#	278615
#
# Disc length: 3756 seconds
#
# Revision: 0
# Processed by: cddbd v1.5.2PL0 Copyright (c) Steve Scherf et al.
# Submitted via: CDex 1.51
#
DISCID=080eaa13
DTITLE=Various Artist - COWBOY and INDIANER sessions vol 1
DYEAR=2007
DGENRE=Country Rock
TTITLE0=Vidar Vang - Weary Blues From Waiting
TTITLE1=Christer Knutsen - Forget This Dance
TTITLE2=William Hut - I Shall Be Released
TTITLE3=KevinWelch and Henning Kvitnes - Peace Call
TTITLE4=Roy Lønhøiden - Det snør på skogen
TTITLE5=Karen Joe Fields - Lovin' In My Baby's Eyes
TTITLE6=CC Cowboys - Lyst
TTITLE7=Seregant Petter - John Wesley Hardin
TTITLE8=Hilde Heltberg and Kari Iveland - You Can Close Your Eyes
TTITLE9=Tom Russell and Andrew Hardin - Big River
TTITLE10=Home Groan - It Makes No Difference
TTITLE11=Johnny Hide - St. John The Gambler
TTITLE12=Saint Yhomas - Love Is A Rose
TTITLE13=Karin Wright - Full House
TTITLE14=Omar Østli - City Central Pensjonat
TTITLE15=Bill Booth -  Off To America
TTITLE16=Grady - Honky Tonkin'
TTITLE17=Onkel Tuka - To hender
TTITLE18=Carsten L. Boe - P1 arkiv - Cowboy and Indianer tema - (Kjenningsmelodi)
EXTD=YEAR: 2007
EXTT0=
EXTT1=
EXTT2=
EXTT3=
EXTT4=
EXTT5=
EXTT6=
EXTT7=
EXTT8=
EXTT9=
EXTT10=
EXTT11=
EXTT12=
EXTT13=
EXTT14=
EXTT15=
EXTT16=
EXTT17=
EXTT18=
PLAYORDER=
